<svg xmlns="http://www.w3.org/2000/svg" width="21" height="21"><path fill="#FFF" d="M6.3 16.8c-1.16 0-2.09.94-2.09 2.1 0 1.16.93 2.1 2.09 2.1a2.1 2.1 0 1 0 0-4.2zM0 0v2.1h2.1l3.775 7.964-1.418 2.573A2.135 2.135 0 0 0 4.2 13.65c0 1.16.94 2.1 2.1 2.1h12.6v-2.1H6.746a.26.26 0 0 1-.262-.263c0-.047.01-.089.031-.126l.94-1.711h7.822c.788 0 1.476-.436 1.838-1.082l3.754-6.814A1.05 1.05 0 0 0 19.95 2.1H4.426L3.428 0H0zm16.8 16.8c-1.16 0-2.09.94-2.09 2.1 0 1.16.93 2.1 2.09 2.1a2.1 2.1 0 1 0 0-4.2z"/></svg>