<svg xmlns="http://www.w3.org/2000/svg" width="476" height="476"><g fill="none" fill-rule="evenodd"><path fill="#E40613" d="M0 0H476V476H0z"/><path fill="#FFF" fill-rule="nonzero" d="M96.875 212.75c2.25.333 6.542-1.792 12.875-6.375 6.917-5.083 12.75-10.833 17.5-17.25 5.917-8 8.875-15.458 8.875-22.375 0-1.25-.083-2.5-.25-3.75-.917-5.5-5.833-11.625-14.75-18.375 8.75-7.75 13.125-14.917 13.125-21.5 0-1.167-.167-2.25-.5-3.25-.417-1.417-1.375-2.75-2.875-4-2.583-2.083-3.958-3.208-4.125-3.375-.583-.583-1.625-2.083-3.125-4.5-1.167-1.75-2.438-2.98-3.813-3.688-1.374-.708-3.312-1.062-5.812-1.062-4.25 0-9.354.98-15.313 2.938-5.958 1.958-10.895 4.187-14.812 6.687-1.25-.333-2.708-.5-4.375-.5-3.667 0-5.5.667-5.5 2v81c0 .417-.146 1.02-.438 1.813-.291.791-.437 1.437-.437 1.937 0 .417.083.792.25 1.125.5 1.25 3.917 3.563 10.25 6.938 6.333 3.375 10.75 5.229 13.25 5.562zm-1.5-69.125v-13c1.417-1.833 4.167-3.75 8.25-5.75s7.083-3 9-3c.75 0 1.208.167 1.375.5.667 1.083-.938 3.833-4.813 8.25-3.874 4.417-8.479 8.75-13.812 13zm0 48.75v-23.25c2.5-2.167 6.542-4.375 12.125-6.625 5.167-2 8.833-3.042 11-3.125.5 5.167-1.875 11.583-7.125 19.25s-10.583 12.25-16 13.75zm107.086-77.328c.286-2.472.19-3.988-.29-4.547-.75-.833-3.375-1.875-7.875-3.125s-8-1.875-10.5-1.875c-1 0-1.708.125-2.125.375-2.333 1.417-3.25 3.542-2.75 6.375 0 .167.375 1.167 1.125 3 .5 1.333.667 2.708.5 4.125.583 2.5.875 8.625.875 18.375 0 14.833-.792 27.708-2.375 38.625-2 14.167-5 21.458-9 21.875-3.167.333-5.583-7.167-7.25-22.5-1.333-11.917-2-25.208-2-39.875 0-7.583.208-12.167.625-13.75-.083-1.083.292-2.563 1.125-4.438l.151-.346c.733-1.712 1.1-3.075 1.1-4.091 0-.833-.21-1.5-.626-2-.917-1.083-4.104-2.375-9.562-3.875-5.459-1.5-8.646-2.083-9.563-1.75-2.083.75-3.292 2.417-3.625 5-1.167 8.25-1.75 17.792-1.75 28.625 0 14.083.917 26.917 2.75 38.5 2.083 12.583 4.833 20.75 8.25 24.5 1.583 1.75 3.77 3.02 6.563 3.813a223.33 223.33 0 0 0 8.312 2.187 875.32 875.32 0 0 0 9.688 3.25c3.291 1.083 6.104 1.5 8.437 1.25 13.25-1.5 19.875-26 19.875-73.5 0-16.284-.039-24.263-.117-23.936l-.001.006.033-.273zm68.42 0c.287-2.472.19-3.988-.289-4.547-.75-.833-3.375-1.875-7.875-3.125s-8-1.875-10.5-1.875c-1 0-1.708.125-2.125.375-2.333 1.417-3.25 3.542-2.75 6.375 0 .167.375 1.167 1.125 3 .5 1.333.667 2.708.5 4.125.583 2.5.875 8.625.875 18.375 0 14.833-.792 27.708-2.375 38.625-2 14.167-5 21.458-9 21.875-3.167.333-5.583-7.167-7.25-22.5-1.333-11.917-2-25.208-2-39.875 0-7.583.208-12.167.625-13.75-.083-1.083.292-2.563 1.125-4.438l.151-.346c.733-1.712 1.1-3.075 1.1-4.091 0-.833-.21-1.5-.626-2-.917-1.083-4.104-2.375-9.562-3.875-5.459-1.5-8.646-2.083-9.563-1.75-2.083.75-3.292 2.417-3.625 5-1.167 8.25-1.75 17.792-1.75 28.625 0 14.083.917 26.917 2.75 38.5 2.083 12.583 4.833 20.75 8.25 24.5 1.583 1.75 3.77 3.02 6.563 3.813a223.33 223.33 0 0 0 8.312 2.187 875.334 875.334 0 0 0 9.688 3.25c3.291 1.083 6.104 1.5 8.437 1.25 13.25-1.5 19.875-26 19.875-73.5 0-16.284-.039-24.263-.117-23.936l-.001.006.033-.273zm13.382 96.703c4.917 1.167 8.625 1.625 11.125 1.375 3.25-.25 4.875-1.625 4.875-4.125 0-.667-.354-1.708-1.062-3.125-.709-1.417-1.063-2.583-1.063-3.5V179.25l26.375 24.625c1 1.583 1.625 2.792 1.875 3.625 1.583 2.75 3.708 4.167 6.375 4.25 2.5.083 5.604-2.646 9.313-8.188 3.708-5.541 5.187-9.02 4.437-10.437-1.083-.833-2.042-1.458-2.875-1.875-1.417-.75-2.5-1.25-3.25-1.5-11.917-12.25-19.625-19.958-23.125-23.125 17-15.167 25.25-27.583 24.75-37.25-.167-3.083-1.333-5.875-3.5-8.375-.167-.25-2.542-2.542-7.125-6.875a164.265 164.265 0 0 0-5.5-5c-1.917-1.667-4.042-2.75-6.375-3.25a21.016 21.016 0 0 0-3.875-.375c-3.25 0-7.062 1.104-11.437 3.313-4.375 2.208-7.271 3.354-8.688 3.437-1.5.083-4.02-.354-7.562-1.313-3.542-.958-5.813-1.354-6.813-1.187-3.25.417-4.917 1.75-5 4 0 .25.125.604.375 1.063.25.458.375.979.375 1.562v87.25c0 1.083-.104 1.98-.312 2.688-.209.708-.313 1.27-.313 1.687 0 1.333 2.667 2.583 8 3.75zm13.875-57.125V135.5c9.917-8.167 16.833-12.25 20.75-12.25 1.417 0 2.125.833 2.125 2.5 0 3.5-2.917 8.833-8.75 16s-10.542 11.458-14.125 12.875zm88.171 57.5c.667 0 1.084-.042 1.25-.125 1.084-.667 1.875-2.292 2.375-4.875.5-2.333.584-3.917.25-4.75-1.166-2.833-1.75-5.458-1.75-7.875v-65.75l12.875-3.5c.75-.167 1.709.02 2.875.563 1.167.541 2.084.812 2.75.812 2.5-.083 3.98-.604 4.438-1.563.458-.958.687-2.354.687-4.187 0-2.417-.416-5.25-1.25-8.5-.666-2.75-1.291-4.625-1.875-5.625-.833-1.5-2.416-2.417-4.75-2.75-1.083-.167-2.291.042-3.625.625-2 .917-3.208 1.417-3.625 1.5l-43.5 11.125c-.75.167-1.791.167-3.125 0-1.333-.167-2.416-.125-3.25.125-3.25 1-5.208 2.458-5.875 4.375-.416 1.583 1.042 4.604 4.375 9.063 3.334 4.458 5.959 6.937 7.875 7.437.667.167 1.48-.063 2.438-.688.958-.625 1.646-.979 2.062-1.062l8.875-2.25v61.875c0 1-.541 2.583-1.625 4.75-1.25 2.5-1.291 4.5-.125 6 1 1.167 4.25 2.375 9.75 3.625 4.917 1.083 8.75 1.625 11.5 1.625zM107.5 356.375c7.25-.167 12.917-2.23 17-6.188 4.083-3.958 6.125-9.02 6.125-15.187 0-7.167-1.167-12.75-3.5-16.75-1.833-3.083-5.125-6.167-9.875-9.25l-15-9.5c-4.417-3.167-6.625-8.5-6.625-16 0-4.5.854-8.52 2.563-12.063 1.708-3.541 3.854-5.395 6.437-5.562.833-.083 1.25 1.667 1.25 5.25 0 2-.146 5.208-.438 9.625-.291 4.417-.437 7.25-.437 8.5l.001.259c.01 1.26.093 2.007.249 2.241 1.333 1.833 4.5 3.542 9.5 5.125 4.5 1.5 7.583 2.125 9.25 1.875 2.917-.417 4.458-2.458 4.625-6.125.083-.917-.083-1.833-.5-2.75-.5-1.333-.792-2.292-.875-2.875 0-.917.042-2.5.125-4.75.083-2.583.125-4.542.125-5.875 0-7.167-1.167-12.208-3.5-15.125-1.5-1.917-3.48-3.375-5.938-4.375-2.458-1-4.895-1.958-7.312-2.875-9.75-4.083-15.583-5.917-17.5-5.5-4.583 1.083-8.938 4.813-13.063 11.188-4.124 6.375-6.395 12.687-6.812 18.937-.5 7.5 1.667 14 6.5 19.5 4.167 4.75 11.417 9.917 21.75 15.5 4.5 2.417 6.75 7.25 6.75 14.5 0 3.333-.563 6.313-1.688 8.938-1.124 2.625-2.479 3.937-4.062 3.937a2.48 2.48 0 0 1-1.125-.25c-1.5-.583-2.625-3.375-3.375-8.375-.833-5.417-1.5-8.417-2-9-.5-.583-2.854-1.23-7.063-1.938-4.208-.708-7.77-1.062-10.687-1.062-1.333 0-2.25.083-2.75.25-1 .333-1.854 1.104-2.563 2.313-.708 1.208-.937 2.437-.687 3.687.917 1.667 1.708 2.833 2.375 3.5.917 1.333 2.25 4.625 4 9.875 1.417 4.5 3.25 7.75 5.5 9.75 1.5 1.417 3.27 2.354 5.313 2.813 2.041.458 4.062.895 6.062 1.312.167 0 2.167.542 6 1.625 2.083.583 4.042.875 5.875.875zm94.04-97.328c.286-2.472.19-3.988-.29-4.547-.75-.833-3.375-1.875-7.875-3.125s-8-1.875-10.5-1.875c-1 0-1.708.125-2.125.375-2.333 1.417-3.25 3.542-2.75 6.375 0 .167.375 1.167 1.125 3 .5 1.333.667 2.708.5 4.125.583 2.5.875 8.625.875 18.375 0 14.833-.792 27.708-2.375 38.625-2 14.167-5 21.458-9 21.875-3.167.333-5.583-7.167-7.25-22.5-1.333-11.917-2-25.208-2-39.875 0-7.583.208-12.167.625-13.75-.083-1.083.292-2.563 1.125-4.438l.151-.346c.733-1.712 1.099-3.075 1.099-4.091 0-.833-.208-1.5-.625-2-.917-1.083-4.104-2.375-9.563-3.875-5.458-1.5-8.645-2.083-9.562-1.75-2.083.75-3.292 2.417-3.625 5-1.167 8.25-1.75 17.792-1.75 28.625 0 14.083.917 26.917 2.75 38.5 2.083 12.583 4.833 20.75 8.25 24.5 1.583 1.75 3.77 3.02 6.563 3.813a223.33 223.33 0 0 0 8.312 2.187 875.327 875.327 0 0 0 9.688 3.25c3.291 1.083 6.104 1.5 8.437 1.25 13.25-1.5 19.875-26 19.875-73.5 0-16.284-.039-24.263-.117-23.936l-.001.006.032-.273zM218 354.5c5 2.25 8.25 3.292 9.75 3.125 1.5-.167 2.646-1.23 3.438-3.188.791-1.958 1.104-3.312.937-4.062-.167-.75-.542-2.125-1.125-4.125-.417-1.417-.625-2.667-.625-3.75v-21.25c1.583 1.25 3.188 2.52 4.813 3.813 1.625 1.291 3.104 1.937 4.437 1.937 6.833 0 13.542-6.417 20.125-19.25 5.917-11.5 8.875-21 8.875-28.5 0-10.333-4-17.625-12-21.875-1.167-.583-3-2.042-5.5-4.375-2.083-2-4.083-3.25-6-3.75-1-.25-2-.375-3-.375-1.75 0-4.563.708-8.438 2.125-3.875 1.417-7.062 2.083-9.562 2-1.75-.083-4.104-.604-7.063-1.563-2.958-.958-4.645-1.437-5.062-1.437-2.5 0-4 2-4.5 6-.083.583.167 1.542.75 2.875s.875 2.25.875 2.75v77.25c0 1-.292 2.375-.875 4.125-.75 2.333-.75 4.083 0 5.25 1.25 1.833 4.5 3.917 9.75 6.25zm12.375-47.375V277c1.833-2.5 4.458-4.792 7.875-6.875s6.083-3.125 8-3.125c1.583 0 2.375 1.458 2.375 4.375 0 5.583-1.833 12.375-5.5 20.375-4 8.833-8.25 13.958-12.75 15.375zm65.125 51.5a72.845 72.845 0 0 1 17-10.875 49.445 49.445 0 0 1 7.75-3 1.11 1.11 0 0 1 .5-.125c.417 0 .958.188 1.625.563.667.375 1.125.52 1.375.437.917-.333 1.98-1.313 3.188-2.938 1.208-1.625 1.937-3.145 2.187-4.562.167-1-2.104-3.313-6.813-6.938-4.708-3.625-7.645-5.437-8.812-5.437-1 0-3.646 1.02-7.938 3.063-4.291 2.041-7.687 3.812-10.187 5.312V321c8-4.75 13.583-7.417 16.75-8 2.083-.167 3.542-.25 4.375-.25 1.083-.333 2.208-1.125 3.375-2.375 1.167-1.25 1.75-2.333 1.75-3.25 0-1.5-2.146-4.188-6.438-8.063-4.291-3.875-7.104-5.729-8.437-5.562-4.667 1.583-8.458 3.125-11.375 4.625V277.75c2.917-2.75 7.458-5.167 13.625-7.25 2.583-.917 5.375-1.708 8.375-2.375.167-.083.458 0 .875.25s1.083.375 2 .375c1.083 0 2.48-.917 4.188-2.75 1.708-1.833 2.479-3.125 2.312-3.875-.333-1.583-2.48-4.23-6.438-7.938-3.958-3.708-6.937-5.895-8.937-6.562-.917-.333-3.208.583-6.875 2.75-4 2.25-7.25 3.375-9.75 3.375-1.917 0-4.375-.604-7.375-1.813-3-1.208-5-1.854-6-1.937-.917-.083-2.354.417-4.313 1.5-1.958 1.083-2.937 1.917-2.937 2.5v94c0 1.083 2.583 2.75 7.75 5 .75.333 5.292 2.208 13.625 5.625zm46-2.875c4.917 1.167 8.625 1.625 11.125 1.375 3.25-.25 4.875-1.625 4.875-4.125 0-.667-.354-1.708-1.063-3.125-.708-1.417-1.062-2.583-1.062-3.5V323.25l26.375 24.625c1 1.583 1.625 2.792 1.875 3.625 1.583 2.75 3.708 4.167 6.375 4.25 2.5.083 5.604-2.646 9.313-8.188 3.708-5.541 5.187-9.02 4.437-10.437-1.083-.833-2.042-1.458-2.875-1.875-1.417-.75-2.5-1.25-3.25-1.5C385.708 321.5 378 313.792 374.5 310.625c17-15.167 25.25-27.583 24.75-37.25-.167-3.083-1.333-5.875-3.5-8.375-.167-.25-2.542-2.542-7.125-6.875a164.265 164.265 0 0 0-5.5-5c-1.917-1.667-4.042-2.75-6.375-3.25a21.016 21.016 0 0 0-3.875-.375c-3.25 0-7.063 1.104-11.438 3.313-4.375 2.208-7.27 3.354-8.687 3.437-1.5.083-4.02-.354-7.563-1.313-3.541-.958-5.812-1.354-6.812-1.187-3.25.417-4.917 1.75-5 4 0 .25.125.604.375 1.063.25.458.375.979.375 1.562v87.25c0 1.083-.104 1.98-.313 2.688-.208.708-.312 1.27-.312 1.687 0 1.333 2.667 2.583 8 3.75zm13.875-57.125V279.5c9.917-8.167 16.833-12.25 20.75-12.25 1.417 0 2.125.833 2.125 2.5 0 3.5-2.917 8.833-8.75 16s-10.542 11.458-14.125 12.875z"/></g></svg>